<mxfile host="app.diagrams.net" modified="2024-02-24T07:34:14.373Z" agent="Mozilla/5.0 (Windows NT 10.0; Win64; x64) AppleWebKit/537.36 (KHTML, like Gecko) Chrome/121.0.0.0 Safari/537.36" etag="BfEAYkCq2Vbc08xuB_KV" version="23.1.1" type="device">
  <diagram name="Page-1" id="e7e014a7-5840-1c2e-5031-d8a46d1fe8dd">
    <mxGraphModel dx="384" dy="411" grid="1" gridSize="10" guides="1" tooltips="1" connect="1" arrows="1" fold="1" page="1" pageScale="1" pageWidth="1169" pageHeight="826" background="none" math="0" shadow="0">
      <root>
        <mxCell id="0" />
        <mxCell id="1" parent="0" />
        <mxCell id="br4zl9_0a7ZIUzmDsCKa-41" value="&lt;p style=&quot;margin:0px;margin-top:4px;text-align:center;&quot;&gt;&lt;b&gt;Student&lt;/b&gt;&lt;/p&gt;&lt;hr size=&quot;1&quot;&gt;&lt;p style=&quot;margin:0px;margin-left:4px;&quot;&gt;- name: string&lt;/p&gt;&lt;p style=&quot;margin:0px;margin-left:4px;&quot;&gt;- education: FormOfEducation&lt;br&gt;&lt;/p&gt;&amp;nbsp;- mark: float&lt;br&gt;&lt;p style=&quot;margin:0px;margin-left:4px;&quot;&gt;&amp;nbsp;&lt;/p&gt;&lt;p style=&quot;margin:0px;margin-left:4px;&quot;&gt;&lt;br&gt;&lt;/p&gt;" style="verticalAlign=top;align=left;overflow=fill;fontSize=12;fontFamily=Helvetica;html=1;whiteSpace=wrap;" vertex="1" parent="1">
          <mxGeometry x="239" y="130" width="191" height="100" as="geometry" />
        </mxCell>
        <mxCell id="br4zl9_0a7ZIUzmDsCKa-42" value="&lt;p style=&quot;margin:0px;margin-top:4px;text-align:center;&quot;&gt;ListOfStudents&lt;/p&gt;&lt;hr size=&quot;1&quot;&gt;&lt;p style=&quot;margin:0px;margin-left:4px;&quot;&gt;- studentsArrayList: ArrayList&amp;lt;Student&amp;gt;&lt;/p&gt;&lt;hr size=&quot;1&quot;&gt;&lt;p style=&quot;margin:0px;margin-left:4px;&quot;&gt;+ GetStudentsList(): void&lt;/p&gt;&lt;p style=&quot;margin:0px;margin-left:4px;&quot;&gt;+ GetInfoOfScholaship(): void&lt;/p&gt;&lt;p style=&quot;margin:0px;margin-left:4px;&quot;&gt;+ GetInfoPaidStudents(): void&lt;/p&gt;&lt;p style=&quot;margin:0px;margin-left:4px;&quot;&gt;+ GetAverageSessionMark(): void&lt;/p&gt;" style="verticalAlign=top;align=left;overflow=fill;fontSize=12;fontFamily=Helvetica;html=1;whiteSpace=wrap;" vertex="1" parent="1">
          <mxGeometry x="224" y="290" width="221" height="150" as="geometry" />
        </mxCell>
        <mxCell id="br4zl9_0a7ZIUzmDsCKa-43" value="" style="html=1;verticalAlign=bottom;endArrow=open;dashed=1;endSize=8;curved=0;rounded=0;entryX=0.5;entryY=0;entryDx=0;entryDy=0;exitX=0.5;exitY=1;exitDx=0;exitDy=0;" edge="1" parent="1" source="br4zl9_0a7ZIUzmDsCKa-41" target="br4zl9_0a7ZIUzmDsCKa-42">
          <mxGeometry relative="1" as="geometry">
            <mxPoint x="374.5" y="260" as="sourcePoint" />
            <mxPoint x="294.5" y="260" as="targetPoint" />
            <Array as="points">
              <mxPoint x="334.5" y="260" />
            </Array>
          </mxGeometry>
        </mxCell>
      </root>
    </mxGraphModel>
  </diagram>
</mxfile>
